<svg width="32" height="24" viewBox="0 0 32 24" xmlns="http://www.w3.org/2000/svg">
<path d="M10.3101 19.6877H10.3115C10.3127 19.6877 10.314 19.6875 10.3152 19.6875H27.3125C27.731 19.6875 28.0989 19.4099 28.2139 19.0076L31.9639 5.88257C32.0447 5.59961 31.988 5.29541 31.811 5.06055C31.6338 4.82568 31.3567 4.6875 31.0625 4.6875H8.14795L7.47778 1.67163C7.38232 1.24268 7.00195 0.9375 6.5625 0.9375H0.9375C0.419678 0.9375 0 1.35718 0 1.875C0 2.39282 0.419678 2.8125 0.9375 2.8125H5.81055C5.9292 3.34692 9.01758 17.2449 9.19531 18.0444C8.19897 18.4775 7.5 19.4709 7.5 20.625C7.5 22.1758 8.76172 23.4375 10.3125 23.4375H27.3125C27.8303 23.4375 28.25 23.0178 28.25 22.5C28.25 21.9822 27.8303 21.5625 27.3125 21.5625H10.3125C9.79565 21.5625 9.375 21.1418 9.375 20.625C9.375 20.1089 9.79419 19.689 10.3101 19.6877ZM29.8196 6.5625L26.6052 17.8125H11.0645L8.56445 6.5625H29.8196Z" />
</svg>
