<svg width="222" height="34" viewBox="0 0 222 34" fill="none" xmlns="http://www.w3.org/2000/svg">
<path d="M11.8 15.4H16.3L14 7.9L11.8 15.4ZM101.5 14.3L106.6 0.2H118.6V26.1H110.7V9.8L104.8 26.2H98.1L92.5 10.8V17.7C92.5 21 91.4 23.4 89.3 24.8C87.2 26.2 84.2 27 80.8 27C77.2 27 74.6 26.3 72.5 24.9C70.3 23.5 69.3 21.2 69.3 18.1V8.7H63.1V26.1H55V8.7H42.9C41.8 6.8 40 6.4 37.8 6.4C33.7 6.4 31.6 9.6 31.6 13.5C31.6 17.4 33.8 20.6 37.8 20.6C39.7 20.6 41.6 20 42.9 18.2H51.2C50.3 23.8 44.7 27 37.7 27C33.2 27 29.2 25.1 26.6 22L28 26.1H19.3L17.8 21H10.3L8.6 26.1H0L8.6 0.3H19.3L23.5 12.6C24 5.6 30.2 0 37.8 0C42.5 0 46.4 1.4 48.7 3.9V0.3H77.7V16.5C77.7 19 79.6 19.6 80.9 19.6C82.2 19.6 84.3 19 84.3 16.5V0.3H96.4L101.5 14.3ZM126.6 0.2H137.4C139.4 0.2 141.1 0.5 142.6 1.2C144.1 1.9 145.3 2.8 146.2 4C147.1 5.2 147.8 6.6 148.3 8.2C148.8 9.8 149 11.5 149 13.3C149 15.1 148.8 16.8 148.3 18.4C147.8 20 147.2 21.4 146.2 22.5C145.3 23.7 144.1 24.6 142.6 25.3C141.1 26 139.4 26.3 137.4 26.3H126.6V0.2ZM131.2 22.6H135.7C137.5 22.6 138.9 22.4 140.1 21.9C141.2 21.4 142.1 20.8 142.8 19.9C143.4 19.1 143.9 18.1 144.1 16.9C144.3 15.8 144.4 14.5 144.4 13.2C144.4 11.9 144.3 10.7 144.1 9.5C143.9 8.4 143.4 7.4 142.8 6.5C142.2 5.7 141.3 5 140.1 4.5C138.9 4 137.5 4 135.7 4H131.2V22.6ZM150.8 4.2V0.2H155V4.1H150.8V4.2ZM150.8 26.4V7.5H155V26.4H150.8ZM175.5 25.4C175.5 28.3 174.7 30.4 173.1 31.8C171.5 33.2 169.2 33.9 166.2 33.9C165.2 33.9 164.3 33.8 163.3 33.6C162.3 33.4 161.5 33.1 160.7 32.6C159.9 32.1 159.2 31.5 158.7 30.8C158.2 30 157.8 29.1 157.7 28H161.9C162 28.6 162.2 29.1 162.5 29.4C162.8 29.8 163.1 30.1 163.5 30.3C163.9 30.5 164.3 30.6 164.8 30.7C165.3 30.8 165.8 30.8 166.3 30.8C168 30.8 169.2 30.4 170 29.6C170.8 28.8 171.2 27.6 171.2 26V23H171.1C170.5 24 169.7 24.9 168.7 25.4C167.7 26 166.6 26.3 165.4 26.3C163.9 26.3 162.6 26 161.5 25.5C160.4 25 159.6 24.3 158.9 23.3C158.2 22.4 157.7 21.3 157.4 20.1C157.1 18.9 156.9 17.6 156.9 16.3C156.9 15 157.1 13.8 157.5 12.7C157.9 11.6 158.4 10.5 159.2 9.7C159.9 8.8 160.8 8.1 161.9 7.6C163 7.1 164.2 6.8 165.5 6.8C166.7 6.8 167.8 7.1 168.8 7.6C169.8 8.1 170.6 8.9 171.1 10H171.2V7.5H175.4V25.4H175.5ZM166.2 23.1C167.1 23.1 167.9 22.9 168.6 22.5C169.2 22.1 169.8 21.6 170.2 21C170.6 20.4 170.9 19.7 171.1 18.9C171.3 18.1 171.4 17.3 171.4 16.5C171.4 15.7 171.3 14.9 171.1 14.2C170.9 13.4 170.6 12.8 170.2 12.2C169.8 11.6 169.3 11.2 168.6 10.8C168 10.5 167.2 10.3 166.3 10.3C165.4 10.3 164.6 10.5 164 10.9C163.4 11.3 162.9 11.8 162.5 12.4C162.1 13 161.8 13.7 161.7 14.5C161.5 15.3 161.4 16.1 161.4 16.9C161.4 17.7 161.5 18.4 161.7 19.2C161.9 19.9 162.2 20.6 162.6 21.2C163 21.8 163.5 22.3 164.1 22.6C164.6 22.9 165.3 23.1 166.2 23.1ZM178 4.2V0.2H182.2V4.1H178V4.2ZM178 26.4V7.5H182.2V26.4H178ZM184.2 7.5H187.3V1.8H191.5V7.5H195.3V10.6H191.5V20.7C191.5 21.1 191.5 21.5 191.6 21.8C191.6 22.1 191.7 22.4 191.9 22.6C192 22.8 192.2 23 192.5 23.1C192.8 23.2 193.1 23.3 193.6 23.3H194.5C194.8 23.3 195.1 23.2 195.4 23.2V26.4C194.9 26.4 194.5 26.5 194 26.5C193.6 26.5 193.1 26.6 192.6 26.6C191.5 26.6 190.6 26.5 190 26.3C189.3 26.1 188.8 25.8 188.4 25.4C188 25 187.8 24.5 187.6 23.9C187.5 23.3 187.4 22.6 187.4 21.8V10.6H184.3V7.5H184.2ZM213.4 22.1C213.4 22.6 213.5 23 213.6 23.2C213.7 23.4 214 23.5 214.4 23.5H214.8C215 23.5 215.2 23.5 215.4 23.4V26.3C215.3 26.3 215.1 26.4 214.8 26.5C214.6 26.6 214.3 26.6 214.1 26.7C213.9 26.7 213.6 26.8 213.4 26.8H212.8C211.9 26.8 211.2 26.6 210.7 26.3C210.1 26 209.8 25.4 209.6 24.5C208.8 25.3 207.8 25.9 206.5 26.3C205.3 26.7 204.1 26.8 203 26.8C202.1 26.8 201.3 26.7 200.6 26.5C199.8 26.3 199.1 25.9 198.5 25.5C197.9 25.1 197.4 24.5 197.1 23.8C196.7 23.1 196.6 22.3 196.6 21.4C196.6 20.2 196.8 19.3 197.2 18.5C197.6 17.8 198.2 17.2 198.9 16.8C199.6 16.4 200.4 16.1 201.2 15.9C202.1 15.7 202.9 15.6 203.8 15.5C204.6 15.4 205.3 15.2 206 15.2C206.7 15.1 207.3 15 207.8 14.9C208.3 14.8 208.7 14.5 209 14.2C209.3 13.9 209.5 13.4 209.5 12.8C209.5 12.3 209.4 11.8 209.1 11.5C208.8 11.2 208.5 10.9 208.1 10.7C207.7 10.5 207.3 10.4 206.8 10.3C206.3 10.2 205.9 10.2 205.5 10.2C204.3 10.2 203.4 10.4 202.6 10.9C201.8 11.4 201.4 12.1 201.3 13.2H197.1C197.2 12 197.5 11 198 10.2C198.5 9.4 199.2 8.8 200 8.3C200.8 7.8 201.7 7.5 202.7 7.3C203.7 7.1 204.7 7 205.8 7C206.7 7 207.6 7.1 208.5 7.3C209.4 7.5 210.2 7.8 210.9 8.2C211.6 8.6 212.2 9.2 212.6 9.9C213 10.6 213.3 11.4 213.3 12.4V22.1H213.4ZM209.2 16.9C208.6 17.3 207.8 17.6 206.9 17.6C206 17.7 205 17.8 204.1 18C203.7 18.1 203.2 18.2 202.8 18.3C202.4 18.4 202 18.6 201.7 18.8C201.4 19 201.1 19.3 201 19.7C200.8 20.1 200.7 20.5 200.7 21.1C200.7 21.6 200.8 22 201.1 22.3C201.4 22.6 201.7 22.9 202.1 23.1C202.5 23.3 202.9 23.4 203.3 23.5C203.7 23.6 204.2 23.6 204.5 23.6C205 23.6 205.5 23.5 206 23.4C206.5 23.3 207 23.1 207.5 22.8C208 22.5 208.4 22.1 208.7 21.7C209 21.2 209.2 20.7 209.2 20V16.9ZM217.3 26.4V0.2H221.5V26.3H217.3V26.4Z" fill="black"/>
</svg>
